# xmcd
# 
# Track frame offsets:
#     150
#     21402
#     43556
#     64124
#     83319
#     110795
#     135705
#     159570
#     182920
#     200131
#     221006
#     248114
#     266027
#     292910
#     315440
# 
# Disc length: 4528
# 
# Revision: 2
# Processed by: cddbd v1.5.2PL0 Copyright (c) Steve Scherf et al.
# Submitted via: BonkEnc v1.0.6
# 
DISCID=dc11ae0f
DTITLE=Various Artist - Cafe Del Mar-14-CD#2
DYEAR=2007
DGENRE=New Age
TTITLE0=Viggo  - Childhood
TTITLE1=Melibea - Jam in Dawn
TTITLE2=Duo Mecanico - Love Luxury
TTITLE3=Agron - Love My Soul
TTITLE4=Schwarz and Funk - Remando Al Viento
TTITLE5=Jazzy Pecada - Slow Down
TTITLE6=Gary B - Love Rain Down
TTITLE7=Alejandro de Pinedo - Wonderland
TTITLE8=Clelia Felix - Hidden Island
TTITLE9=Teri Richardson - Shadows of my love
TTITLE10=Ypey - Love in Spain
TTITLE11=Orgatronics - Viva Cuba Musica
TTITLE12=Nouvelle Vendette - With You
TTITLE13=Alessandro Boschi - Sentosa
TTITLE14=Koru - I Believe
EXTD=YEAR: 2007
EXTT0=
EXTT1=
EXTT2=
EXTT3=
EXTT4=
EXTT5=
EXTT6=
EXTT7=
EXTT8=
EXTT9=
EXTT10=
EXTT11=
EXTT12=
EXTT13=
EXTT14=
PLAYORDER=
